<svg width="30" height="30" viewBox="0 0 30 30" fill="none" xmlns="http://www.w3.org/2000/svg">
<path d="M10.6013 0.488201C11.1098 0.996736 11.2348 1.77411 10.9113 2.41642C10.0678 4.09119 9.59202 5.98395 9.59202 7.99265C9.59202 14.8495 15.1506 20.408 22.0074 20.408C24.0161 20.408 25.9089 19.9323 27.5836 19.0887C28.2259 18.7652 29.0033 18.8902 29.5118 19.3988C30.0204 19.9073 30.1454 20.6847 29.8219 21.327C27.2327 26.4677 21.9047 30.0001 15.7487 30.0001C7.05094 30.0001 0 22.9491 0 14.2513C0 8.09535 3.53234 2.76736 8.67307 0.178185C9.31538 -0.145319 10.0928 -0.0203342 10.6013 0.488201ZM6.36949 6.11603C4.47729 8.29572 3.33333 11.1405 3.33333 14.2513C3.33333 21.1082 8.89189 26.6667 15.7487 26.6667C18.8595 26.6667 21.7043 25.5228 23.884 23.6306C23.2684 23.7037 22.6422 23.7414 22.0074 23.7414C13.3096 23.7414 6.25869 16.6904 6.25869 7.99265C6.25869 7.35789 6.29632 6.73163 6.36949 6.11603Z" fill="white"/>
</svg>
