<svg width="34" height="34" viewBox="0 0 34 34" fill="none" xmlns="http://www.w3.org/2000/svg">
<path d="M16.9999 0.333334C17.9204 0.333334 18.6666 1.07953 18.6666 2V3.66667C18.6666 4.58714 17.9204 5.33333 16.9999 5.33333C16.0794 5.33333 15.3333 4.58714 15.3333 3.66667V2C15.3333 1.07953 16.0794 0.333334 16.9999 0.333334ZM28.7851 5.21488C29.436 5.86575 29.436 6.92102 28.7851 7.5719L27.6066 8.75041C26.9557 9.40128 25.9005 9.40128 25.2496 8.75041C24.5987 8.09954 24.5987 7.04426 25.2496 6.39339L26.4281 5.21488C27.079 4.564 28.1342 4.564 28.7851 5.21488ZM5.2148 5.21488C5.86567 4.564 6.92094 4.564 7.57182 5.21488L8.75033 6.39339C9.4012 7.04426 9.4012 8.09954 8.75033 8.75041C8.09946 9.40128 7.04418 9.40128 6.39331 8.75041L5.2148 7.5719C4.56392 6.92103 4.56392 5.86575 5.2148 5.21488ZM16.9999 10.3333C13.318 10.3333 10.3333 13.3181 10.3333 17C10.3333 20.6819 13.318 23.6667 16.9999 23.6667C20.6818 23.6667 23.6666 20.6819 23.6666 17C23.6666 13.3181 20.6818 10.3333 16.9999 10.3333ZM6.99992 17C6.99992 11.4772 11.4771 7 16.9999 7C22.5228 7 26.9999 11.4772 26.9999 17C26.9999 22.5228 22.5228 27 16.9999 27C11.4771 27 6.99992 22.5228 6.99992 17ZM0.333252 17C0.333252 16.0795 1.07944 15.3333 1.99992 15.3333H3.66659C4.58706 15.3333 5.33325 16.0795 5.33325 17C5.33325 17.9205 4.58706 18.6667 3.66659 18.6667H1.99992C1.07944 18.6667 0.333252 17.9205 0.333252 17ZM28.6666 17C28.6666 16.0795 29.4128 15.3333 30.3333 15.3333H31.9999C32.9204 15.3333 33.6666 16.0795 33.6666 17C33.6666 17.9205 32.9204 18.6667 31.9999 18.6667H30.3333C29.4128 18.6667 28.6666 17.9205 28.6666 17ZM6.39331 25.2496C7.04418 24.5987 8.09946 24.5987 8.75033 25.2496C9.4012 25.9004 9.4012 26.9557 8.75033 27.6066L7.57182 28.7851C6.92094 29.436 5.86567 29.436 5.2148 28.7851C4.56392 28.1342 4.56392 27.0789 5.2148 26.4281L6.39331 25.2496ZM25.2496 27.6066C24.5987 26.9557 24.5987 25.9004 25.2496 25.2496C25.9005 24.5987 26.9557 24.5987 27.6066 25.2496L28.7851 26.4281C29.436 27.079 29.436 28.1342 28.7851 28.7851C28.1342 29.436 27.079 29.436 26.4281 28.7851L25.2496 27.6066ZM16.9999 28.6667C17.9204 28.6667 18.6666 29.4129 18.6666 30.3333V32C18.6666 32.9205 17.9204 33.6667 16.9999 33.6667C16.0794 33.6667 15.3333 32.9205 15.3333 32V30.3333C15.3333 29.4129 16.0794 28.6667 16.9999 28.6667Z" fill="#211D1D"/>
</svg>
