<svg width="48" height="48" viewBox="0 0 48 48" fill="none" xmlns="http://www.w3.org/2000/svg">
<path d="M24 8C22.8954 8 22 8.89543 22 10C22 13.3845 17.908 15.0795 15.5148 12.6863C14.7337 11.9052 13.4674 11.9052 12.6863 12.6863C11.9053 13.4673 11.9053 14.7337 12.6863 15.5147C15.0796 17.908 13.3845 22 10 22C8.89543 22 8 22.8954 8 24C8 25.1046 8.89543 26 10 26C13.3847 26 15.0793 30.0922 12.6862 32.4853C11.9052 33.2663 11.9052 34.5327 12.6862 35.3137C13.4673 36.0948 14.7336 36.0948 15.5146 35.3137C17.9078 32.9206 22 34.6153 22 38C22 39.1046 22.8954 40 24 40C25.1046 40 26 39.1046 26 38C26 34.6154 30.0921 32.9204 32.4853 35.3137C33.2664 36.0947 34.5327 36.0947 35.3138 35.3137C36.0948 34.5326 36.0948 33.2663 35.3138 32.4853C32.9206 30.0921 34.6154 26 38 26C39.1046 26 40 25.1046 40 24C40 22.8954 39.1046 22 38 22C34.6157 22 32.9203 17.9081 35.3136 15.5147C36.0947 14.7337 36.0947 13.4674 35.3136 12.6863C34.5326 11.9053 33.2662 11.9053 32.4852 12.6863C30.0919 15.0796 26 13.3844 26 10C26 8.89543 25.1046 8 24 8ZM18.0163 9.55406C18.2445 6.4486 20.8363 4 24 4C27.1637 4 29.7555 6.4486 29.9837 9.55406C32.3409 7.51953 35.905 7.62081 38.1421 9.85788C40.3791 12.095 40.4804 15.6591 38.4458 18.0163C41.5513 18.2444 44 20.8362 44 24C44 27.1637 41.5514 29.7555 38.4459 29.9837C40.4805 32.3409 40.3793 35.905 38.1422 38.1421C35.9051 40.3792 32.3409 40.4805 29.9837 38.4458C29.7556 41.5513 27.1638 44 24 44C20.8363 44 18.2444 41.5513 18.0163 38.4458C15.6591 40.4805 12.0949 40.3793 9.85778 38.1422C7.62068 35.9051 7.51944 32.3409 9.55405 29.9837C6.4486 29.7555 4 27.1637 4 24C4 20.8362 6.44866 18.2444 9.55417 18.0163C7.51957 15.6591 7.62081 12.0949 9.85791 9.85784C12.095 7.62076 15.6591 7.5195 18.0163 9.55406Z" fill="#211D1D"/>
<path d="M24 20C22.9391 20 21.9217 20.4214 21.1716 21.1716C20.4214 21.9217 20 22.9391 20 24C20 25.0609 20.4214 26.0783 21.1716 26.8284C21.9217 27.5786 22.9391 28 24 28C25.0609 28 26.0783 27.5786 26.8284 26.8284C27.5786 26.0783 28 25.0609 28 24C28 22.9391 27.5786 21.9217 26.8284 21.1716C26.0783 20.4214 25.0609 20 24 20ZM18.3431 18.3431C19.8434 16.8429 21.8783 16 24 16C26.1217 16 28.1566 16.8429 29.6569 18.3431C31.1571 19.8434 32 21.8783 32 24C32 26.1217 31.1571 28.1566 29.6569 29.6569C28.1566 31.1571 26.1217 32 24 32C21.8783 32 19.8434 31.1571 18.3431 29.6569C16.8429 28.1566 16 26.1217 16 24C16 21.8783 16.8429 19.8434 18.3431 18.3431Z" fill="#211D1D"/>
</svg>
