<svg width="178" height="58" viewBox="0 0 178 58" fill="none" xmlns="http://www.w3.org/2000/svg">
<path d="M58.208 43V22.12H50.864V17.8H70.304V22.12H62.96V43H58.208ZM78.8051 43.504C77.0291 43.504 75.4331 43.144 74.0171 42.424C72.6011 41.704 71.4851 40.66 70.6691 39.292C69.8531 37.924 69.4451 36.28 69.4451 34.36V33.784C69.4451 31.864 69.8531 30.22 70.6691 28.852C71.4851 27.484 72.6011 26.44 74.0171 25.72C75.4331 25 77.0291 24.64 78.8051 24.64C80.5811 24.64 82.1771 25 83.5931 25.72C85.0091 26.44 86.1251 27.484 86.9411 28.852C87.7571 30.22 88.1651 31.864 88.1651 33.784V34.36C88.1651 36.28 87.7571 37.924 86.9411 39.292C86.1251 40.66 85.0091 41.704 83.5931 42.424C82.1771 43.144 80.5811 43.504 78.8051 43.504ZM78.8051 39.472C80.1971 39.472 81.3491 39.028 82.2611 38.14C83.1731 37.228 83.6291 35.932 83.6291 34.252V33.892C83.6291 32.212 83.1731 30.928 82.2611 30.04C81.3731 29.128 80.2211 28.672 78.8051 28.672C77.4131 28.672 76.2611 29.128 75.3491 30.04C74.4371 30.928 73.9811 32.212 73.9811 33.892V34.252C73.9811 35.932 74.4371 37.228 75.3491 38.14C76.2611 39.028 77.4131 39.472 78.8051 39.472ZM92.352 43V25.144H96.816V27.088H97.464C97.776 26.488 98.292 25.972 99.012 25.54C99.732 25.084 100.68 24.856 101.856 24.856C103.128 24.856 104.148 25.108 104.916 25.612C105.684 26.092 106.272 26.728 106.68 27.52H107.328C107.736 26.752 108.312 26.116 109.056 25.612C109.8 25.108 110.856 24.856 112.224 24.856C113.328 24.856 114.324 25.096 115.212 25.576C116.124 26.032 116.844 26.74 117.372 27.7C117.924 28.636 118.2 29.824 118.2 31.264V43H113.664V31.588C113.664 30.604 113.412 29.872 112.908 29.392C112.404 28.888 111.696 28.636 110.784 28.636C109.752 28.636 108.948 28.972 108.372 29.644C107.82 30.292 107.544 31.228 107.544 32.452V43H103.008V31.588C103.008 30.604 102.756 29.872 102.252 29.392C101.748 28.888 101.04 28.636 100.128 28.636C99.096 28.636 98.292 28.972 97.716 29.644C97.164 30.292 96.888 31.228 96.888 32.452V43H92.352ZM128.623 43.504C127.351 43.504 126.211 43.288 125.203 42.856C124.195 42.4 123.391 41.752 122.791 40.912C122.215 40.048 121.927 39.004 121.927 37.78C121.927 36.556 122.215 35.536 122.791 34.72C123.391 33.88 124.207 33.256 125.239 32.848C126.295 32.416 127.495 32.2 128.839 32.2H133.735V31.192C133.735 30.352 133.471 29.668 132.943 29.14C132.415 28.588 131.575 28.312 130.423 28.312C129.295 28.312 128.455 28.576 127.903 29.104C127.351 29.608 126.991 30.268 126.823 31.084L122.647 29.68C122.935 28.768 123.391 27.94 124.015 27.196C124.663 26.428 125.515 25.816 126.571 25.36C127.651 24.88 128.959 24.64 130.495 24.64C132.847 24.64 134.707 25.228 136.075 26.404C137.443 27.58 138.127 29.284 138.127 31.516V38.176C138.127 38.896 138.463 39.256 139.135 39.256H140.575V43H137.551C136.663 43 135.931 42.784 135.355 42.352C134.779 41.92 134.491 41.344 134.491 40.624V40.588H133.807C133.711 40.876 133.495 41.26 133.159 41.74C132.823 42.196 132.295 42.604 131.575 42.964C130.855 43.324 129.871 43.504 128.623 43.504ZM129.415 39.832C130.687 39.832 131.719 39.484 132.511 38.788C133.327 38.068 133.735 37.12 133.735 35.944V35.584H129.163C128.323 35.584 127.663 35.764 127.183 36.124C126.703 36.484 126.463 36.988 126.463 37.636C126.463 38.284 126.715 38.812 127.219 39.22C127.723 39.628 128.455 39.832 129.415 39.832ZM149.43 43C148.254 43 147.294 42.64 146.55 41.92C145.83 41.176 145.47 40.192 145.47 38.968V28.888H141.006V25.144H145.47V19.6H150.006V25.144H154.902V28.888H150.006V38.176C150.006 38.896 150.342 39.256 151.014 39.256H154.47V43H149.43ZM166.871 43.504C165.095 43.504 163.499 43.144 162.083 42.424C160.667 41.704 159.551 40.66 158.735 39.292C157.919 37.924 157.511 36.28 157.511 34.36V33.784C157.511 31.864 157.919 30.22 158.735 28.852C159.551 27.484 160.667 26.44 162.083 25.72C163.499 25 165.095 24.64 166.871 24.64C168.647 24.64 170.243 25 171.659 25.72C173.075 26.44 174.191 27.484 175.007 28.852C175.823 30.22 176.231 31.864 176.231 33.784V34.36C176.231 36.28 175.823 37.924 175.007 39.292C174.191 40.66 173.075 41.704 171.659 42.424C170.243 43.144 168.647 43.504 166.871 43.504ZM166.871 39.472C168.263 39.472 169.415 39.028 170.327 38.14C171.239 37.228 171.695 35.932 171.695 34.252V33.892C171.695 32.212 171.239 30.928 170.327 30.04C169.439 29.128 168.287 28.672 166.871 28.672C165.479 28.672 164.327 29.128 163.415 30.04C162.503 30.928 162.047 32.212 162.047 33.892V34.252C162.047 35.932 162.503 37.228 163.415 38.14C164.327 39.028 165.479 39.472 166.871 39.472Z" fill="#211D1D"/>
<rect y="13" width="40" height="10" rx="5" fill="#5ED147"/>
<rect x="18" y="19.3185" width="20" height="10" rx="5" transform="rotate(-75 18 19.3185)" fill="#5ED147"/>
<rect x="13.1764" y="21.9067" width="20" height="10" rx="5" transform="rotate(-105 13.1764 21.9067)" fill="#5ED147"/>
<circle cx="20" cy="38" r="20" fill="#E84030"/>
</svg>
